/* XPM */
static char * button_close_pressed_xpm[] = {
"25 25 6 1",
" 	c None",
".	c #000000",
"+	c #560909",
"@	c #570909",
"#	c #570808",
"$	c #560808",
".........................",
".                       .",
".                       .",
".    +@@+       @@@+    .",
".     #@@+     +@@#     .",
".      @@@$   $@@@      .",
".       @@@   @@@       .",
".       #@@@ @@@#       .",
".        #@@@@@#        .",
".         #@@@#         .",
".          @@@          .",
".         +@@@+         .",
".        $@@@@@         .",
".       +@@@#@@$        .",
".       @@@+ +@@@       .",
".      @@@$   @@@       .",
".     @@@+     @@@      .",
".    +@@#      @@@+     .",
".   #@@@        #@@+    .",
".                       .",
".                       .",
".                       .",
".                       .",
".                       .",
"........................."};
