/* XPM */
static char * button_close_prelight_xpm[] = {
"25 25 4 1",
" 	c None",
".	c #001031",
"+	c #FE0000",
"@	c #FF0000",
".........................",
".                       .",
".                       .",
".    +@@+       +@@+    .",
".     +@@+     +@@+     .",
".      +@@+   +@@+      .",
".       @@@   @@@       .",
".       +@@+ +@@+       .",
".        +@@@@@+        .",
".         +@@@+         .",
".          @@@          .",
".         +@@@+         .",
".        +@@@@@         .",
".       +@@@+@@+        .",
".       @@@+ +@@+       .",
".      +@@+   +@@       .",
".     +@@+     @@+      .",
".    +@@+      +@@+     .",
".   +@@+        +@@+    .",
".                       .",
".                       .",
".                       .",
".                       .",
".                       .",
"........................."};
