/* XPM */
static char * button_min_prelight_xpm[] = {
"25 25 3 1",
" 	c None",
".	c #001031",
"+	c #335CAD",
".........................",
".                       .",
".                       .",
".                       .",
".                       .",
".                       .",
".                       .",
".                       .",
".                       .",
".                       .",
".                       .",
".                       .",
".                       .",
".                       .",
".                       .",
".                       .",
".                       .",
".                       .",
".   +++++++++++++++++   .",
".   +++++++++++++++++   .",
".                       .",
".                       .",
".                       .",
".                       .",
"........................."};
