/* XPM */
static char * button_min_pressed_xpm[] = {
"25 25 3 1",
" 	c None",
".	c #000000",
"+	c #010C22",
".........................",
".                       .",
".                       .",
".                       .",
".                       .",
".                       .",
".                       .",
".                       .",
".                       .",
".                       .",
".                       .",
".                       .",
".                       .",
".                       .",
".                       .",
".                       .",
".                       .",
".                       .",
".   +++++++++++++++++   .",
".   +++++++++++++++++   .",
".                       .",
".                       .",
".                       .",
".                       .",
"........................."};
