/* XPM */
static char * button_min_normal_xpm[] = {
"25 25 3 1",
" 	c None",
".	c #335CAD",
"+	c #FFFFFF",
".........................",
".                       .",
".                       .",
".                       .",
".                       .",
".                       .",
".                       .",
".                       .",
".                       .",
".                       .",
".                       .",
".                       .",
".                       .",
".                       .",
".                       .",
".                       .",
".                       .",
".                       .",
".   +++++++++++++++++   .",
".   +++++++++++++++++   .",
".                       .",
".                       .",
".                       .",
".                       .",
"........................."};
