/* XPM */
static char * button_max_pressed_xpm[] = {
"25 25 5 1",
" 	c None",
".	c #000000",
"+	c #010C22",
"@	c #010B22",
"#	c #010B21",
".........................",
".                       .",
".                       .",
".  +@++++++++++++++++#  .",
".  +@               @#  .",
".  +@               @#  .",
".  +@               @#  .",
".  +@               @#  .",
".  +@               @#  .",
".  +@               @#  .",
".  +@               @#  .",
".  +@               @#  .",
".  +@               @#  .",
".  +@               @#  .",
".  +@               @#  .",
".  +@               @#  .",
".  +@               @#  .",
".  +@               @#  .",
".  +@               @#  .",
".  +@               +#  .",
".  #@@@@@@@@@@@@@@@@@   .",
".                       .",
".                       .",
".                       .",
"........................."};
