/* XPM */
static char * button_max_prelight_xpm[] = {
"25 25 7 1",
" 	c None",
".	c #001031",
"+	c #335BAC",
"@	c #335BAD",
"#	c #325CAC",
"$	c #325CAD",
"%	c #325BAD",
".........................",
".                       .",
".                       .",
".  +@###############$+  .",
".  +$               $+  .",
".  +$               $+  .",
".  +$               $+  .",
".  +$               $+  .",
".  +$               $+  .",
".  +$               $+  .",
".  +$               $+  .",
".  +$               $+  .",
".  +$               $+  .",
".  +$               $+  .",
".  +$               $+  .",
".  +$               $+  .",
".  +$               $+  .",
".  +$               $+  .",
".  +$               $+  .",
".  +@               %+  .",
".  +@@@@@@@@@@@@@@@@@   .",
".                       .",
".                       .",
".                       .",
"........................."};
