/* XPM */
static char * title_top_middle_inactive_xpm[] = {
"4 25 5 1",
" 	c None",
".	c #325CAC",
"+	c #325BAD",
"@	c #335CAD",
"#	c #083854",
".+@@",
"####",
"####",
"####",
"####",
"####",
"####",
"####",
"####",
"####",
"####",
"####",
"####",
"####",
"####",
"####",
"####",
"####",
"####",
"####",
"####",
"####",
"@@@@",
"@@@@",
"@@@@"};
