/* XPM */
static char * title_top_right_inactive_xpm[] = {
"10 25 7 1",
" 	c None",
".	c #335CAD",
"+	c #325CAC",
"@	c #325CAD",
"#	c #2F60B1",
"$	c #083854",
"%	c #325BAD",
".......+@#",
"$$$$$$$$$.",
"$$$$$$$$$.",
"$$$$$$$$$.",
"$$$$$$$$$.",
"$$$$$$$$$%",
"$$$$$$$$$+",
"$$$$$$$$$+",
"$$$$$$$$$+",
"$$$$$$$$$+",
"$$$$$$$$$+",
"$$$$$$$$$+",
"$$$$$$$$$+",
"$$$$$$$$$+",
"$$$$$$$$$%",
"$$$$$$$$$@",
"$$$$$$$$$@",
"$$$$$$$$$@",
"$$$$$$$$$@",
"$$$$$$$$$@",
"$$$$$$$$$@",
"$$$$$$$$$@",
".........@",
".........+",
".........@"};
