/* XPM */
static char * title_top_left_inactive_xpm[] = {
"10 25 5 1",
" 	c None",
".	c #315DAF",
"+	c #335CAD",
"@	c #083854",
"#	c #325CAD",
".+++++++++",
"+@@@@@@@@@",
"+@@@@@@@@@",
"+@@@@@@@@@",
"+@@@@@@@@@",
"+@@@@@@@@@",
"+@@@@@@@@@",
"+@@@@@@@@@",
"+@@@@@@@@@",
"+@@@@@@@@@",
"#@@@@@@@@@",
"+@@@@@@@@@",
"+@@@@@@@@@",
"+@@@@@@@@@",
"+@@@@@@@@@",
"+@@@@@@@@@",
"+@@@@@@@@@",
"+@@@@@@@@@",
"+@@@@@@@@@",
"+@@@@@@@@@",
"+@@@@@@@@@",
"+@@@@@@@@@",
"++++++++++",
"++++++++++",
"++++++++++"};
