<?xml version="1.0" encoding="UTF-8" standalone="no"?>
<!-- Created with Inkscape (http://www.inkscape.org/) -->

<svg
   xmlns:dc="http://purl.org/dc/elements/1.1/"
   xmlns:cc="http://creativecommons.org/ns#"
   xmlns:rdf="http://www.w3.org/1999/02/22-rdf-syntax-ns#"
   xmlns:svg="http://www.w3.org/2000/svg"
   xmlns="http://www.w3.org/2000/svg"
   xmlns:sodipodi="http://sodipodi.sourceforge.net/DTD/sodipodi-0.dtd"
   xmlns:inkscape="http://www.inkscape.org/namespaces/inkscape"
   id="svg7384"
   height="41"
   width="41"
   version="1.1"
   inkscape:version="0.48.4 r9939"
   sodipodi:docname="close-hover.svg">
  <defs
     id="defs10" />
  <sodipodi:namedview
     pagecolor="#8c8c8c"
     bordercolor="#666666"
     borderopacity="1"
     objecttolerance="10000"
     gridtolerance="10000"
     guidetolerance="10000"
     inkscape:pageopacity="1"
     inkscape:pageshadow="2"
     inkscape:window-width="1600"
     inkscape:window-height="846"
     id="namedview8"
     showgrid="true"
     inkscape:snap-bbox="true"
     inkscape:zoom="11.710378"
     inkscape:cx="7.9043352"
     inkscape:cy="20.5"
     inkscape:window-x="0"
     inkscape:window-y="25"
     inkscape:window-maximized="1"
     inkscape:current-layer="svg7384"
     borderlayer="true"
     inkscape:showpageshadow="false">
    <inkscape:grid
       type="xygrid"
       id="grid3878"
       empspacing="4"
       visible="true"
       enabled="true"
       snapvisiblegridlinesonly="true" />
  </sodipodi:namedview>
  <metadata
     id="metadata90">
    <rdf:RDF>
      <cc:Work
         rdf:about="">
        <dc:format>image/svg+xml</dc:format>
        <dc:type
           rdf:resource="http://purl.org/dc/dcmitype/StillImage" />
        <dc:title />
      </cc:Work>
    </rdf:RDF>
  </metadata>
  <path
     transform="matrix(-1,0,0,1,38,3.0000001)"
     d="m 34,17.5 a 16.5,16.5 0 1 1 -33,0 16.5,16.5 0 1 1 33,0 z"
     sodipodi:ry="16.5"
     sodipodi:rx="16.5"
     sodipodi:cy="17.5"
     sodipodi:cx="17.5"
     id="path3797"
     style="opacity:0.85;fill:#c83b3b;fill-opacity:1;fill-rule:nonzero;stroke:none"
     sodipodi:type="arc" />
  <g
     transform="matrix(0.88893521,0,0,0.88925773,-47.268944,-668.7581)"
     id="g27277-1-1"
     style="fill:#ffffff;fill-opacity:1;stroke:none;display:inline">
    <path
       d="m 71.177839,770.03365 1.26506,0 c 0.01312,-1.5e-4 0.0263,-5.8e-4 0.03953,0 0.322528,0.0142 0.645016,0.16266 0.869729,0.39533 l 2.88592,2.88592 2.925453,-2.88592 c 0.336032,-0.2916 0.565067,-0.38648 0.869729,-0.39533 l 1.265061,0 0,1.26506 c 0,0.3624 -0.04344,0.6966 -0.316265,0.94879 l -2.88592,2.88592 2.846387,2.84639 c 0.238069,0.23805 0.355788,0.57364 0.355798,0.90926 l 0,1.26506 -1.265061,0 c -0.335622,-10e-6 -0.671223,-0.11777 -0.909262,-0.35579 l -2.88592,-2.88592 -2.88592,2.88592 c -0.238039,0.23807 -0.573655,0.35579 -0.909263,0.35579 l -1.26506,0 0,-1.26506 c -4e-6,-0.3356 0.117726,-0.67121 0.355798,-0.90926 l 2.88592,-2.84639 -2.88592,-2.88592 c -0.266601,-0.24621 -0.383516,-0.59363 -0.355798,-0.94879 l 0,-1.26506 z"
       inkscape:connector-curvature="0"
       id="path27279-0-5"
       style="font-size:medium;font-style:normal;font-variant:normal;font-weight:normal;font-stretch:normal;text-indent:0;text-align:start;text-decoration:none;line-height:normal;letter-spacing:normal;word-spacing:normal;text-transform:none;direction:ltr;block-progression:tb;writing-mode:lr-tb;text-anchor:start;color:#bebebe;fill:#ffffff;fill-opacity:1;fill-rule:nonzero;stroke:none;stroke-width:1.78124988000000006;marker:none;visibility:visible;display:inline;overflow:visible;enable-background:new;font-family:Andale Mono;-inkscape-font-specification:Andale Mono"
       sodipodi:nodetypes="ccsccccccccccccccccccccccc" />
  </g>
  <path
     style="opacity:0.3;fill:#ffffff;fill-opacity:1;fill-rule:nonzero;stroke:none"
     d="M 20.5 4 C 11.387302 4 4 11.387302 4 20.5 C 4 29.612698 11.387302 37 20.5 37 C 29.612698 37 37 29.612698 37 20.5 C 37 11.387302 29.612698 4 20.5 4 z M 20.5 5 C 29.060414 5 36 11.939586 36 20.5 C 36 29.060414 29.060414 36 20.5 36 C 11.939586 36 5 29.060414 5 20.5 C 5 11.939586 11.939586 5 20.5 5 z "
     id="path3780" />
</svg>
