/* XPM */
static char * bottom_inactive_xpm[] = {
"32 4 3 1",
" 	c None",
".	c #000000",
"+	c #C3C7CB",
"................................",
"++++++++++++++++++++++++++++++++",
"++++++++++++++++++++++++++++++++",
"................................"};
