/* XPM */
static char * left_active_xpm[] = {
"4 32 3 1",
" 	c None",
".	c #000000",
"+	c #C3C7CB",
".++.",
".++.",
".++.",
".++.",
".++.",
".++.",
".++.",
".++.",
".++.",
".++.",
".++.",
".++.",
".++.",
".++.",
".++.",
".++.",
".++.",
".++.",
".++.",
".++.",
".++.",
".++.",
".++.",
".++.",
".++.",
".++.",
".++.",
".++.",
".++.",
".++.",
".++.",
".++."};
