/* XPM */
static char * right_inactive_xpm[] = {
"4 32 3 1",
" 	c None",
".	c #000000",
"+	c #C3C7CB",
".++.",
".++.",
".++.",
".++.",
".++.",
".++.",
".++.",
".++.",
".++.",
".++.",
".++.",
".++.",
".++.",
".++.",
".++.",
".++.",
".++.",
".++.",
".++.",
".++.",
".++.",
".++.",
".++.",
".++.",
".++.",
".++.",
".++.",
".++.",
".++.",
".++.",
".++.",
".++."};
