/* XPM */
static char * shade_toggled_pressed_xpm[] = {
"20 23 5 1",
" 	c None",
".	c #000000",
"+	c #868A8E",
"@	c #FFFFFF",
"#	c #C3C7CB",
"                    ",
"                    ",
"                    ",
"....................",
".++++++++++++++++++.",
".++++++++++++++++++.",
".++++++++++++++++++.",
".++++++++++++++++++.",
".++++++++++++++++++.",
".++++++++++++++++++.",
".++++++++++++++++++.",
".++++++@@@@@@++++++.",
".++++++@....@#+++++.",
".+++++++@..@##+++++.",
".++++++++@@##++++++.",
".+++++++++##+++++++.",
".++++++++++++++++++.",
".++++++++++++++++++.",
".++++++++++++++++++.",
".++++++++++++++++++.",
".++++++++++++++++++.",
".++++++++++++++++++.",
"...................."};
