/* XPM */
static char * stick_inactive_xpm[] = {
"20 23 5 1",
" 	c None",
".	c #000000",
"+	c #C3C7CB",
"@	c #FFFFFF",
"#	c #868A8E",
"                    ",
"                    ",
"                    ",
"....................",
".++++++++++++++++++.",
".++++++++++++++++++.",
".++++++++++++++++++.",
".++++++++++++++++++.",
".++++++++++++++++++.",
".++++++++++++++++++.",
".++++++++++++++++++.",
".+++++++....+++++++.",
".+++++++.@@.#++++++.",
".+++++++....#++++++.",
".++++++++####++++++.",
".++++++++++++++++++.",
".++++++++++++++++++.",
".++++++++++++++++++.",
".++++++++++++++++++.",
".++++++++++++++++++.",
".++++++++++++++++++.",
".++++++++++++++++++.",
"...................."};
