/* XPM */
static char * stick_toggled_active_xpm[] = {
"20 23 5 1",
" 	c None",
".	c #000000",
"+	c #0000AA",
"@	c #FFFFFF",
"#	c #C3C7CB",
"                    ",
"                    ",
"                    ",
"....................",
".++++++++++++++++++.",
".++++++++++++++++++.",
".++++++++++++++++++.",
".++++++++++++++++++.",
".++++++++++++++++++.",
".++++++++++++++++++.",
".++++++++++++++++++.",
".+++++++@@@@+++++++.",
".+++++++@..@#++++++.",
".+++++++@@@@#++++++.",
".++++++++####++++++.",
".++++++++++++++++++.",
".++++++++++++++++++.",
".++++++++++++++++++.",
".++++++++++++++++++.",
".++++++++++++++++++.",
".++++++++++++++++++.",
".++++++++++++++++++.",
"...................."};
