/* XPM */
static char * top_left_active_xpm[] = {
"23 23 4 1",
" 	c None",
".	c #000000",
"+	c #C3C7CB",
"@	c #0000AA",
".......................",
".+++++++++++++++++++++.",
".+++++++++++++++++++++.",
".++....................",
".++.@@@@@@@@@@@@@@@@@@@",
".++.@@@@@@@@@@@@@@@@@@@",
".++.@@@@@@@@@@@@@@@@@@@",
".++.@@@@@@@@@@@@@@@@@@@",
".++.@@@@@@@@@@@@@@@@@@@",
".++.@@@@@@@@@@@@@@@@@@@",
".++.@@@@@@@@@@@@@@@@@@@",
".++.@@@@@@@@@@@@@@@@@@@",
".++.@@@@@@@@@@@@@@@@@@@",
".++.@@@@@@@@@@@@@@@@@@@",
".++.@@@@@@@@@@@@@@@@@@@",
".++.@@@@@@@@@@@@@@@@@@@",
".++.@@@@@@@@@@@@@@@@@@@",
".++.@@@@@@@@@@@@@@@@@@@",
".++.@@@@@@@@@@@@@@@@@@@",
".++.@@@@@@@@@@@@@@@@@@@",
".++.@@@@@@@@@@@@@@@@@@@",
".++.@@@@@@@@@@@@@@@@@@@",
"......................."};
